<svg width="672" height="672" viewBox="0 0 672 672" fill="none" xmlns="http://www.w3.org/2000/svg">
<g clip-path="url(#clip0_22_17)">
<path d="M124.668 334.89C70.6143 289.581 43.1279 244.849 56.5663 214.137C70.0302 183.366 121.708 173.219 191.871 182.263C149.725 221.78 125.36 277.143 124.668 334.89Z" fill="url(#paint0_linear_22_17)" fill-opacity="0.4"/>
<path d="M483.639 491.439C525.226 451.887 549.194 396.791 549.756 339.378C603.159 384.403 630.231 428.778 616.874 459.303C603.543 489.771 552.747 500.02 483.639 491.439Z" fill="url(#paint1_linear_22_17)" fill-opacity="0.4"/>
<path d="M483.639 491.439C428.602 484.606 361.952 465.832 293.359 435.819C225.459 406.109 166.939 370.323 124.668 334.89C124.349 361.456 129.041 388.527 139.317 414.792C182.077 524.085 305.342 578.02 414.635 535.259C441.07 524.916 464.266 509.864 483.639 491.439Z" fill="url(#paint2_linear_22_17)"/>
<path d="M483.639 491.439C428.602 484.606 361.952 465.832 293.359 435.819C225.459 406.109 166.939 370.323 124.668 334.89C124.349 361.456 129.041 388.527 139.317 414.792C182.077 524.085 305.342 578.02 414.635 535.259C441.07 524.916 464.266 509.864 483.639 491.439Z" fill="url(#paint3_radial_22_17)" fill-opacity="0.5"/>
<path d="M413.906 533.396C438.7 523.696 460.614 509.815 479.161 492.878C424.734 485.599 359.546 466.963 292.557 437.651C226.251 408.639 168.824 373.825 126.66 339.143C126.865 364.096 131.544 389.435 141.179 414.063C183.538 522.327 305.642 575.755 413.906 533.396Z" stroke="url(#paint4_linear_22_17)" stroke-opacity="0.25" stroke-width="4"/>
<path d="M483.638 491.439C544.362 433.688 567.52 342.799 535.102 259.941C492.341 150.648 369.077 96.7125 259.784 139.473C176.755 171.958 125.675 250.904 124.668 334.89C166.939 370.323 225.459 406.109 293.359 435.819C361.952 465.832 428.602 484.607 483.638 491.439Z" fill="url(#paint5_linear_22_17)"/>
<path d="M483.638 491.439C544.362 433.688 567.52 342.799 535.102 259.941C492.341 150.648 369.077 96.7125 259.784 139.473C176.755 171.958 125.675 250.904 124.668 334.89C166.939 370.323 225.459 406.109 293.359 435.819C361.952 465.832 428.602 484.607 483.638 491.439Z" fill="url(#paint6_radial_22_17)" fill-opacity="0.6"/>
<path d="M483.638 491.439C544.362 433.688 567.52 342.799 535.102 259.941C492.341 150.648 369.077 96.7125 259.784 139.473C176.755 171.958 125.675 250.904 124.668 334.89C166.939 370.323 225.459 406.109 293.359 435.819C361.952 465.832 428.602 484.607 483.638 491.439Z" fill="url(#paint7_radial_22_17)" fill-opacity="0.5" style="mix-blend-mode:screen"/>
<path d="M483.638 491.439C544.362 433.688 567.52 342.799 535.102 259.941C492.341 150.648 369.077 96.7125 259.784 139.473C176.755 171.958 125.675 250.904 124.668 334.89C166.939 370.323 225.459 406.109 293.359 435.819C361.952 465.832 428.602 484.607 483.638 491.439Z" fill="url(#paint8_radial_22_17)" fill-opacity="0.6" style="mix-blend-mode:screen"/>
<path d="M483.638 491.439C544.362 433.688 567.52 342.799 535.102 259.941C492.341 150.648 369.077 96.7125 259.784 139.473C176.755 171.958 125.675 250.904 124.668 334.89C166.939 370.323 225.459 406.109 293.359 435.819C361.952 465.832 428.602 484.607 483.638 491.439Z" fill="url(#paint9_radial_22_17)" fill-opacity="0.12" style="mix-blend-mode:color-dodge"/>
<path d="M482.944 489.337C542.588 432.095 565.23 342.433 533.24 260.669C490.881 152.405 368.777 98.9775 260.513 141.336C178.58 173.392 128.05 251.122 126.681 333.966C168.724 369.056 226.79 404.509 294.16 433.987C362.221 463.767 428.316 482.436 482.944 489.337Z" stroke="url(#paint10_linear_22_17)" stroke-opacity="0.25" stroke-width="4"/>
<g style="mix-blend-mode:overlay">
<path d="M147.095 352.583C168.957 368.866 194.019 384.998 221.613 400.35C211.934 372.155 205.819 340.664 208.5 309.5C213.924 246.448 195.905 214.193 175.324 199.646C172.098 203.444 169.013 207.348 166.073 211.349C180.628 231.616 184.096 262.838 161.5 309.5C154.627 323.692 149.951 338.128 147.095 352.583Z" fill="url(#paint11_linear_22_17)" fill-opacity="0.5"/>
</g>
<g style="mix-blend-mode:overlay">
<path d="M227.137 155.556C258.235 158.988 294.959 179.862 314 245.148C316.985 255.383 318.972 270.214 321.33 287.815C328.368 340.357 338.712 417.58 388.792 470.917C422.674 480.979 454.756 487.854 483.639 491.439C534.771 442.809 559.268 370.682 546.374 299.639C526.349 316.129 493.214 326.045 448.892 314.824C417.659 306.916 402.738 271.008 385.796 230.235C370.578 193.612 353.729 153.063 321.963 125.357C301.16 126.859 280.228 131.475 259.784 139.473C248.271 143.978 237.373 149.375 227.137 155.556Z" fill="url(#paint12_linear_22_17)" fill-opacity="0.7"/>
</g>
<path d="M65.7277 218.145C61.3943 228.049 62.3619 241.224 70.6563 257.888C78.9191 274.488 93.8485 293.205 114.795 312.814C156.617 351.968 220.763 393.139 297.367 426.658C373.972 460.176 447.742 479.352 504.882 483.499C533.499 485.577 557.378 483.841 575.178 478.645C593.046 473.428 603.379 465.199 607.713 455.295C612.046 445.391 611.079 432.216 602.784 415.553C594.521 398.952 579.592 380.236 558.646 360.626C555.628 357.801 552.493 354.965 549.246 352.122C549.544 347.89 549.715 343.64 549.756 339.378C603.159 384.403 630.231 428.778 616.874 459.303C592.926 514.034 448.084 503.52 293.359 435.819C138.634 368.118 32.6185 268.868 56.5663 214.137C70.0302 183.366 121.708 173.219 191.871 182.263C188.765 185.175 185.755 188.174 182.844 191.253C177.977 190.716 173.213 190.279 168.559 189.941C139.941 187.864 116.063 189.599 98.2627 194.796C80.3945 200.012 70.0611 208.242 65.7277 218.145Z" fill="url(#paint13_linear_22_17)" fill-opacity="0.7"/>
<mask id="mask0_22_17" style="mask-type:alpha" maskUnits="userSpaceOnUse" x="52" y="179" width="568" height="316">
<path d="M65.2531 218.671C60.9196 228.575 61.8872 241.749 70.1816 258.413C78.4445 275.014 93.3739 293.73 114.32 313.339C156.143 352.493 220.288 393.664 296.893 427.183C373.497 460.702 447.267 479.877 504.407 484.025C533.025 486.102 556.903 484.366 574.703 479.17C592.571 473.954 602.905 465.724 607.238 455.82C611.572 445.917 610.604 432.742 602.31 416.078C594.047 399.478 579.117 380.761 558.171 361.152C555.153 358.326 552.019 355.49 548.772 352.647C549.069 348.416 549.24 344.166 549.282 339.903C602.684 384.929 629.756 429.303 616.4 459.829C592.452 514.56 447.609 504.045 292.884 436.344C138.159 368.644 32.1439 269.393 56.0917 214.662C69.5556 183.892 121.233 173.744 191.396 182.788C188.29 185.701 185.28 188.699 182.37 191.779C177.502 191.242 172.738 190.804 168.084 190.466C139.467 188.389 115.588 190.125 97.7881 195.321C79.9199 200.537 69.5865 208.767 65.2531 218.671Z" fill="white"/>
</mask>
<g mask="url(#mask0_22_17)">
<circle cx="337.525" cy="337.525" r="311" transform="rotate(72.5 337.525 337.525)" fill="url(#paint14_angular_22_17)"/>
</g>
</g>
<defs>
<linearGradient id="paint0_linear_22_17" x1="293.275" y1="436.165" x2="370.408" y2="260.111" gradientUnits="userSpaceOnUse">
<stop stop-color="#BF8DFF"/>
<stop offset="1" stop-color="#BF8DFF" stop-opacity="0"/>
</linearGradient>
<linearGradient id="paint1_linear_22_17" x1="293.275" y1="436.165" x2="370.408" y2="260.111" gradientUnits="userSpaceOnUse">
<stop stop-color="#BF8DFF"/>
<stop offset="1" stop-color="#BF8DFF" stop-opacity="0"/>
</linearGradient>
<linearGradient id="paint2_linear_22_17" x1="449.5" y1="283" x2="110" y2="613" gradientUnits="userSpaceOnUse">
<stop offset="0.19678" stop-color="#0A0118"/>
<stop offset="1" stop-color="#2B0061"/>
</linearGradient>
<radialGradient id="paint3_radial_22_17" cx="0" cy="0" r="1" gradientUnits="userSpaceOnUse" gradientTransform="translate(382.865 233.87) rotate(113.665) scale(472.808 600.376)">
<stop offset="0.496519" stop-color="#1D0042" stop-opacity="0"/>
<stop offset="0.688734" stop-color="#9C4FFF"/>
<stop offset="1" stop-color="#1D0042" stop-opacity="0"/>
</radialGradient>
<linearGradient id="paint4_linear_22_17" x1="253.059" y1="530.288" x2="292.884" y2="438.378" gradientUnits="userSpaceOnUse">
<stop stop-color="#BF8DFF"/>
<stop offset="1" stop-color="#BF8DFF" stop-opacity="0"/>
</linearGradient>
<linearGradient id="paint5_linear_22_17" x1="607" y1="62" x2="51.5" y2="642" gradientUnits="userSpaceOnUse">
<stop stop-color="#0A0118"/>
<stop offset="1" stop-color="#2B0061"/>
</linearGradient>
<radialGradient id="paint6_radial_22_17" cx="0" cy="0" r="1" gradientUnits="userSpaceOnUse" gradientTransform="translate(457.677 62.048) rotate(113.632) scale(661.852 840.426)">
<stop offset="0.208333" stop-color="#0A0118" stop-opacity="0.627451"/>
<stop offset="0.609375" stop-color="#2B0061"/>
<stop offset="1" stop-color="#0A0118" stop-opacity="0"/>
</radialGradient>
<radialGradient id="paint7_radial_22_17" cx="0" cy="0" r="1" gradientUnits="userSpaceOnUse" gradientTransform="translate(457.677 62.048) rotate(113.632) scale(661.852 840.426)">
<stop offset="0.34177" stop-color="#0A0118" stop-opacity="0"/>
<stop offset="0.609375" stop-color="#705F9F"/>
<stop offset="1" stop-color="#0A0118" stop-opacity="0"/>
</radialGradient>
<radialGradient id="paint8_radial_22_17" cx="0" cy="0" r="1" gradientUnits="userSpaceOnUse" gradientTransform="translate(457.677 62.048) rotate(113.632) scale(661.852 840.426)">
<stop offset="0.433937" stop-color="#0A0118" stop-opacity="0"/>
<stop offset="0.612547" stop-color="#705F9F"/>
<stop offset="1" stop-color="#0A0118" stop-opacity="0"/>
</radialGradient>
<radialGradient id="paint9_radial_22_17" cx="0" cy="0" r="1" gradientUnits="userSpaceOnUse" gradientTransform="translate(457.677 62.048) rotate(113.632) scale(270.822 343.892)">
<stop stop-color="#9C4FFF"/>
<stop offset="1" stop-color="#0A0118" stop-opacity="0"/>
</radialGradient>
<linearGradient id="paint10_linear_22_17" x1="422.812" y1="141.728" x2="364.988" y2="273.881" gradientUnits="userSpaceOnUse">
<stop stop-color="#BF8DFF"/>
<stop offset="1" stop-color="#BF8DFF" stop-opacity="0"/>
</linearGradient>
<linearGradient id="paint11_linear_22_17" x1="184.354" y1="199.646" x2="184.354" y2="400.35" gradientUnits="userSpaceOnUse">
<stop stop-color="white"/>
<stop offset="0.692708" stop-color="white" stop-opacity="0"/>
</linearGradient>
<linearGradient id="paint12_linear_22_17" x1="388.452" y1="125.357" x2="388" y2="467.5" gradientUnits="userSpaceOnUse">
<stop offset="0.0989583" stop-color="white" stop-opacity="0"/>
<stop offset="1" stop-color="white" stop-opacity="0.42"/>
</linearGradient>
<linearGradient id="paint13_linear_22_17" x1="293.275" y1="436.165" x2="370.408" y2="260.111" gradientUnits="userSpaceOnUse">
<stop stop-color="#BF8DFF"/>
<stop offset="1" stop-color="#BF8DFF" stop-opacity="0"/>
</linearGradient>
<radialGradient id="paint14_angular_22_17" cx="0" cy="0" r="1" gradientUnits="userSpaceOnUse" gradientTransform="translate(337.525 337.525) rotate(90) scale(311)">
<stop stop-color="#F1C9FF"/>
<stop offset="0.125" stop-color="#B960FF" stop-opacity="0"/>
<stop offset="1" stop-color="#B960FF" stop-opacity="0"/>
</radialGradient>
<clipPath id="clip0_22_17">
<rect width="672" height="672" fill="white"/>
</clipPath>
</defs>
</svg>
