<svg width="390" height="835" viewBox="0 0 390 835" fill="none" xmlns="http://www.w3.org/2000/svg">
<circle cx="235.81" cy="790.196" r="1" fill="#B0A5C0"/>
<circle cx="356.62" cy="815" r="1" fill="#B0A5C0"/>
<circle cx="103.44" cy="329.101" r="1" fill="#B0A5C0"/>
<circle cx="187.62" cy="367" r="1" fill="#B0A5C0"/>
<circle cx="215.404" cy="459.608" r="1" fill="#B0A5C0"/>
<circle cx="34.6203" cy="400" r="1" fill="#B0A5C0"/>
<circle cx="317.553" cy="161.467" r="1" fill="#B0A5C0"/>
<circle cx="212.459" cy="823" r="1" fill="#B0A5C0"/>
<circle cx="368.206" cy="119.65" r="1" fill="#B0A5C0"/>
<circle cx="198.972" cy="569.924" r="1" fill="#B0A5C0"/>
<circle cx="352.62" cy="502" r="1" fill="#B0A5C0"/>
<circle cx="377.62" cy="435.834" r="1" fill="#B0A5C0"/>
<circle cx="377.62" cy="644.124" r="1" fill="#B0A5C0"/>
<circle cx="377.62" cy="735.549" r="1" fill="#B0A5C0"/>
<circle cx="246.425" cy="696.154" r="1" fill="#B0A5C0"/>
<circle cx="171.62" cy="740" r="1" fill="#B0A5C0"/>
<circle cx="114.62" cy="754" r="1" fill="#B0A5C0"/>
<circle cx="23.7419" cy="299.905" r="1" fill="#B0A5C0"/>
<circle cx="290.28" cy="663.044" r="1" fill="#B0A5C0"/>
<circle cx="357.246" cy="207.403" r="1" fill="#B0A5C0"/>
<circle cx="287.62" cy="281" r="1" fill="#B0A5C0"/>
<circle cx="347.62" cy="273" r="1" fill="#B0A5C0"/>
<circle cx="280.62" cy="226" r="1" fill="#B0A5C0"/>
<circle cx="253.072" cy="161.193" r="1" fill="#B0A5C0"/>
<circle cx="254.62" cy="92" r="1" fill="#B0A5C0"/>
<circle cx="141.317" cy="90.4746" r="1" fill="#B0A5C0"/>
<circle cx="128.62" cy="51" r="1" fill="#B0A5C0"/>
<circle cx="157.936" cy="823" r="1" fill="#B0A5C0"/>
<circle cx="259.915" cy="606.537" r="1" fill="#B0A5C0"/>
<circle cx="350.62" cy="582" r="1" fill="#B0A5C0"/>
<circle cx="79.4155" cy="797.757" r="1" fill="#B0A5C0"/>
<circle cx="229.349" cy="667.077" r="1" fill="#B0A5C0"/>
<circle cx="30.7071" cy="629.533" r="1" fill="#B0A5C0"/>
<circle cx="351.62" cy="326" r="1" fill="#B0A5C0"/>
<circle cx="271.097" cy="445.916" r="1" fill="#B0A5C0"/>
<circle cx="327.62" cy="434" r="1" fill="#B0A5C0"/>
<circle cx="37.2523" cy="524.967" r="0.75" fill="#B0A5C0"/>
<circle cx="58.0666" cy="536.389" r="0.75" fill="#B0A5C0"/>
<circle cx="212.436" cy="537.456" r="0.75" fill="#B0A5C0"/>
<circle cx="377.37" cy="742.14" r="0.75" fill="#B0A5C0"/>
<circle cx="320.37" cy="785.75" r="0.75" fill="#B0A5C0"/>
<circle cx="332.603" cy="65.7627" r="0.75" fill="#B0A5C0"/>
<circle cx="242.427" cy="14.3689" r="0.75" fill="#B0A5C0"/>
<circle cx="144.36" cy="188.73" r="0.75" fill="#B0A5C0"/>
<circle cx="58.5334" cy="436.94" r="0.75" fill="#B0A5C0"/>
<circle cx="105.291" cy="23.3865" r="0.75" fill="#B0A5C0"/>
<circle cx="213.995" cy="164.939" r="0.75" fill="#B0A5C0"/>
<circle cx="46.1133" cy="204.418" r="0.75" fill="#B0A5C0"/>
<circle cx="33.3703" cy="242.75" r="0.75" fill="#B0A5C0"/>
<circle cx="218.37" cy="231.75" r="0.75" fill="#B0A5C0"/>
<circle cx="236.869" cy="279.015" r="0.75" fill="#B0A5C0"/>
<circle cx="192.913" cy="271.964" r="0.75" fill="#B0A5C0"/>
<circle cx="181.421" cy="318.183" r="0.75" fill="#B0A5C0"/>
<circle cx="21.5703" cy="76.4822" r="0.75" fill="#B0A5C0"/>
<circle cx="350.836" cy="212.239" r="0.75" fill="#B0A5C0"/>
<circle cx="113.602" cy="624.654" r="0.75" fill="#B0A5C0"/>
<circle cx="135.229" cy="97.9508" r="0.75" fill="#B0A5C0"/>
<circle cx="45.3703" cy="36.75" r="0.75" fill="#B0A5C0"/>
<circle cx="377.37" cy="163.098" r="0.75" fill="#B0A5C0"/>
<circle cx="254.836" cy="461.257" r="0.75" fill="#B0A5C0"/>
<circle cx="195.265" cy="41.0295" r="0.75" fill="#B0A5C0"/>
<circle cx="197.206" cy="616.702" r="0.75" fill="#B0A5C0"/>
<circle cx="270.876" cy="344.988" r="0.75" fill="#B0A5C0"/>
<circle cx="86.1903" cy="366.5" r="0.5" fill="#B0A5C0"/>
<circle cx="338.123" cy="681.499" r="0.5" fill="#B0A5C0"/>
<circle cx="79.363" cy="481.109" r="0.5" fill="#B0A5C0"/>
<circle cx="25.1203" cy="489.5" r="0.5" fill="#B0A5C0"/>
<circle cx="298.664" cy="343.355" r="0.5" fill="#B0A5C0"/>
<circle cx="352.12" cy="398.5" r="0.5" fill="#B0A5C0"/>
<circle cx="337.63" cy="209.61" r="0.5" fill="#B0A5C0"/>
<circle cx="280.009" cy="123.929" r="0.5" fill="#B0A5C0"/>
<circle cx="152.396" cy="593.528" r="0.5" fill="#B0A5C0"/>
<circle cx="105.935" cy="200.688" r="0.5" fill="#B0A5C0"/>
<circle cx="100.683" cy="539.494" r="0.5" fill="#B0A5C0"/>
<circle cx="122.935" cy="685.213" r="0.5" fill="#B0A5C0"/>
<circle cx="47.1203" cy="687.5" r="0.5" fill="#B0A5C0"/>
<circle cx="70.1203" cy="743.5" r="0.5" fill="#B0A5C0"/>
<circle cx="29.1203" cy="797.5" r="0.5" fill="#B0A5C0"/>
<circle cx="71.9672" cy="122.559" r="0.5" fill="#B0A5C0"/>
<circle cx="306.036" cy="484.886" r="0.5" fill="#B0A5C0"/>
<circle cx="84.9255" cy="378.363" r="0.5" fill="#B0A5C0"/>
<circle cx="311.808" cy="23.9185" r="0.5" fill="#B0A5C0"/>
<circle cx="12.5" cy="618.912" r="0.5" fill="#B0A5C0"/>
<circle cx="136.782" cy="514.292" r="0.5" fill="#B0A5C0"/>
<circle cx="371.641" cy="12.7583" r="0.5" fill="#B0A5C0"/>
<circle cx="162.062" cy="416.796" r="0.5" fill="#B0A5C0"/>
<circle cx="132.12" cy="447.5" r="0.5" fill="#B0A5C0"/>
<circle cx="319.499" cy="77.5262" r="0.5" fill="#B0A5C0"/>
<circle cx="215.197" cy="49.1985" r="0.5" fill="#B0A5C0"/>
<circle cx="252.519" cy="726.227" r="0.5" fill="#B0A5C0"/>
<circle cx="331.12" cy="754.5" r="0.5" fill="#B0A5C0"/>
<circle cx="54.5998" cy="180.164" r="0.5" fill="#B0A5C0"/>
<circle cx="292.719" cy="193.164" r="0.5" fill="#B0A5C0"/>
<circle cx="183.955" cy="120.931" r="0.5" fill="#B0A5C0"/>
<circle cx="284.081" cy="384.344" r="0.5" fill="#B0A5C0"/>
<circle cx="377.12" cy="199.944" r="0.5" fill="#B0A5C0"/>
<circle cx="312.357" cy="538.931" r="0.5" fill="#B0A5C0"/>
<circle cx="305.12" cy="579.5" r="0.5" fill="#B0A5C0"/>
<circle cx="178.146" cy="69.92" r="0.5" fill="#B0A5C0"/>
<circle cx="308.082" cy="676.885" r="0.5" fill="#B0A5C0"/>
<circle cx="353.148" cy="237.605" r="0.5" fill="#B0A5C0"/>
<circle cx="240.603" cy="578.469" r="0.5" fill="#B0A5C0"/>
<circle cx="90.7173" cy="319.913" r="0.5" fill="#B0A5C0"/>
<circle cx="218.12" cy="385.5" r="0.5" fill="#B0A5C0"/>
<circle cx="257.154" cy="539.708" r="0.5" fill="#B0A5C0"/>
<circle cx="22.5629" cy="546.205" r="0.5" fill="#B0A5C0"/>
<circle cx="121.637" cy="336.833" r="0.5" fill="#B0A5C0"/>
<circle cx="27.3472" cy="149.962" r="0.5" fill="#B0A5C0"/>
<circle cx="55.7173" cy="197.141" r="0.5" fill="#B0A5C0"/>
<circle cx="165.625" cy="495.912" r="0.5" fill="#B0A5C0"/>
<circle cx="56.9865" cy="199.795" r="0.5" fill="#B0A5C0"/>
<circle cx="82.1203" cy="242.5" r="0.5" fill="#B0A5C0"/>
<circle cx="134.329" cy="242.503" r="0.5" fill="#B0A5C0"/>
</svg>
